<svg 
 xmlns="http://www.w3.org/2000/svg"
 xmlns:xlink="http://www.w3.org/1999/xlink"
 width="301px" height="301px">
<path fill-rule="evenodd"  fill="rgb(255, 255, 255)"
 d="M300.000,300.000 L300.000,300.026 L-0.000,300.026 L-0.000,298.026 L0.026,298.026 L0.026,200.1000 L-0.000,200.1000 L-0.000,198.1000 L0.026,198.1000 L0.026,101.000 L-0.000,101.000 L-0.000,99.000 L0.026,99.000 L0.026,2.026 L-0.000,2.026 L-0.000,0.026 L0.026,0.026 L0.026,-0.000 L2.026,-0.000 L2.026,0.026 L99.000,0.026 L99.000,-0.000 L101.000,-0.000 L101.000,0.026 L198.1000,0.026 L198.1000,-0.000 L200.1000,-0.000 L200.1000,0.026 L298.026,0.026 L298.026,-0.000 L300.026,-0.000 L300.026,300.000 L300.000,300.000 ZM99.000,2.026 L2.026,2.026 L2.026,99.000 L99.000,99.000 L99.000,2.026 ZM99.000,101.000 L2.026,101.000 L2.026,198.1000 L99.000,198.1000 L99.000,101.000 ZM2.026,200.1000 L2.026,298.026 L99.000,298.026 L99.000,200.1000 L2.026,200.1000 ZM198.1000,2.026 L101.000,2.026 L101.000,99.000 L198.1000,99.000 L198.1000,2.026 ZM198.1000,101.000 L101.000,101.000 L101.000,198.1000 L198.1000,198.1000 L198.1000,101.000 ZM101.000,200.1000 L101.000,298.026 L198.1000,298.026 L198.1000,200.1000 L101.000,200.1000 ZM298.026,2.026 L200.1000,2.026 L200.1000,99.000 L298.026,99.000 L298.026,2.026 ZM298.026,101.000 L200.1000,101.000 L200.1000,198.1000 L298.026,198.1000 L298.026,101.000 ZM200.1000,200.1000 L200.1000,298.026 L298.026,298.026 L298.026,200.1000 L200.1000,200.1000 Z"/>
</svg>